<svg id="svg" version="1.1" xmlns="http://www.w3.org/2000/svg" xmlns:xlink="http://www.w3.org/1999/xlink" width="400" height="400" viewBox="0, 0, 400,400"><g id="svgg"><path id="path0" d="M346.000 44.779 C 342.413 45.891,338.634 48.748,335.919 52.400 L 334.879 53.800 332.477 52.494 C 328.136 50.132,321.884 50.028,317.304 52.242 C 307.259 57.097,307.671 69.457,318.092 75.889 L 320.389 77.307 320.144 82.553 C 319.867 88.517,320.179 90.223,322.015 92.758 C 327.140 99.833,338.044 97.611,342.097 88.666 C 343.107 86.437,343.256 86.421,348.200 87.998 C 355.294 90.260,363.350 89.051,366.341 85.275 C 370.339 80.227,369.212 75.014,362.754 68.679 L 358.757 64.758 359.435 61.969 C 362.065 51.148,354.925 42.012,346.000 44.779 M188.600 70.048 C 175.785 71.258,164.227 74.181,149.244 80.002 C 145.069 81.623,136.349 85.972,133.579 87.814 L 130.777 89.677 129.340 88.539 C 107.301 71.075,79.102 71.896,51.000 90.818 C 29.521 105.280,22.240 120.624,22.254 151.400 C 22.268 182.856,31.658 202.491,54.800 219.457 C 60.872 223.908,71.319 229.224,79.091 231.817 C 84.513 233.626,84.262 233.285,83.252 237.472 C 76.170 266.809,84.881 296.338,107.223 318.728 C 127.471 339.019,149.463 349.685,182.500 355.235 C 186.320 355.877,186.355 356.066,183.409 360.100 C 178.792 366.422,179.298 371.496,184.960 375.654 C 190.407 379.655,196.215 374.965,201.873 362.000 L 203.183 359.000 205.691 359.025 C 207.071 359.038,210.270 359.280,212.800 359.562 C 219.996 360.363,227.654 360.785,239.932 361.055 C 252.583 361.333,252.005 361.170,251.233 364.234 C 248.940 373.340,251.767 379.200,258.451 379.200 C 264.609 379.200,268.383 373.394,268.406 363.885 C 268.409 362.518,268.546 361.190,268.709 360.933 C 269.045 360.405,275.470 359.598,279.284 359.604 C 281.827 359.608,287.136 359.118,293.000 358.338 C 302.559 357.067,320.106 351.285,327.058 347.116 C 341.344 338.547,351.371 321.023,349.858 307.267 C 349.532 304.304,346.614 292.071,345.768 290.119 C 345.406 289.284,344.679 287.528,344.152 286.218 C 341.825 280.425,340.150 279.355,332.552 278.808 C 320.599 277.946,309.764 273.322,299.200 264.573 C 285.220 252.995,281.978 242.500,286.604 223.800 C 287.780 219.048,289.381 214.477,298.019 191.200 C 311.933 153.709,309.431 126.173,290.052 103.504 C 270.004 80.053,228.298 66.299,188.600 70.048 M215.200 85.552 C 248.527 89.403,275.151 104.244,285.357 124.660 C 292.468 138.886,293.018 154.529,287.113 174.600 C 286.302 177.354,281.763 190.010,280.040 194.315 C 264.280 233.715,265.285 253.195,284.046 271.954 C 295.898 283.806,310.706 291.614,325.483 293.807 C 331.437 294.690,330.660 293.800,332.787 302.176 C 335.915 314.492,331.599 325.112,320.400 332.660 C 312.964 337.671,294.442 343.044,282.000 343.799 C 279.470 343.953,275.060 344.253,272.200 344.467 C 263.751 345.097,228.578 345.351,222.600 344.825 C 216.532 344.291,211.256 343.720,207.600 343.201 C 206.170 342.998,202.840 342.539,200.200 342.181 C 159.817 336.700,138.478 327.749,118.780 308.027 C 108.251 297.486,102.511 287.617,98.574 273.290 C 95.288 261.331,95.274 256.210,98.487 241.460 C 99.532 236.662,98.679 236.987,108.734 237.555 C 141.352 239.396,170.270 227.386,180.705 207.664 C 192.874 184.668,190.901 151.635,176.114 130.800 C 168.380 119.902,150.400 105.799,143.033 104.853 C 134.295 103.730,154.064 93.309,174.200 88.423 C 187.657 85.158,202.684 84.105,215.200 85.552 M102.400 92.566 C 109.882 94.311,115.203 97.104,120.800 102.225 C 126.924 107.828,128.468 108.800,131.246 108.800 C 133.994 108.800,134.343 109.161,134.343 112.007 C 134.343 116.125,135.490 117.531,141.909 121.282 C 168.781 136.989,178.580 161.171,170.159 191.000 C 165.607 207.124,156.210 214.756,134.732 219.771 C 95.333 228.972,51.804 209.433,41.673 178.000 C 38.966 169.601,37.598 160.486,37.603 150.884 C 37.614 129.518,42.626 116.981,54.971 107.436 C 71.298 94.812,88.671 89.366,102.400 92.566 M364.000 106.447 C 360.815 107.711,359.241 110.533,358.951 115.501 C 358.706 119.700,358.180 121.547,356.074 125.600 C 351.260 134.865,361.306 142.680,368.277 135.093 C 373.391 129.527,376.236 116.870,373.737 110.805 C 372.186 107.044,367.634 105.006,364.000 106.447 M74.505 145.423 C 69.174 148.618,69.558 154.102,75.637 161.604 C 83.172 170.902,90.841 176.718,99.884 179.995 C 111.324 184.141,117.473 170.666,106.400 165.717 C 96.929 161.483,93.734 158.986,87.056 150.600 C 81.935 144.170,78.773 142.865,74.505 145.423 M231.200 152.783 C 223.796 155.112,220.425 159.024,220.409 165.304 C 220.378 177.402,235.168 181.655,244.709 172.293 C 253.984 163.191,243.992 148.760,231.200 152.783 M215.917 262.795 C 211.436 264.146,209.613 269.240,211.167 276.068 C 211.383 277.021,211.940 279.870,212.404 282.400 C 216.464 304.529,223.753 310.526,245.800 309.878 C 256.172 309.573,260.000 307.395,260.000 301.800 C 260.000 295.577,256.942 294.021,244.687 294.009 C 232.558 293.997,231.609 293.514,229.405 286.227 C 228.590 283.533,225.600 268.880,225.600 267.581 C 225.600 264.823,219.382 261.751,215.917 262.795 " stroke="none" fill="#080807" fill-rule="evenodd"></path><path id="path1" d="M325.700 50.676 C 326.085 50.776,326.715 50.776,327.100 50.676 C 327.485 50.575,327.170 50.493,326.400 50.493 C 325.630 50.493,325.315 50.575,325.700 50.676 M360.093 57.600 C 360.093 58.370,360.175 58.685,360.276 58.300 C 360.376 57.915,360.376 57.285,360.276 56.900 C 360.175 56.515,360.093 56.830,360.093 57.600 M201.315 69.496 C 202.588 69.576,204.568 69.575,205.715 69.494 C 206.862 69.414,205.820 69.349,203.400 69.350 C 200.980 69.351,200.042 69.416,201.315 69.496 M189.500 69.882 C 189.995 69.978,190.805 69.978,191.300 69.882 C 191.795 69.787,191.390 69.709,190.400 69.709 C 189.410 69.709,189.005 69.787,189.500 69.882 M319.728 84.800 C 319.728 86.230,319.801 86.815,319.889 86.100 C 319.978 85.385,319.978 84.215,319.889 83.500 C 319.801 82.785,319.728 83.370,319.728 84.800 M199.680 85.098 C 201.594 85.171,204.834 85.171,206.880 85.098 C 208.926 85.026,207.360 84.966,203.400 84.965 C 199.440 84.965,197.766 85.024,199.680 85.098 M86.400 92.187 C 79.348 93.534,68.700 98.052,61.600 102.709 C 47.987 111.638,42.177 119.249,39.647 131.467 C 36.341 147.427,37.047 163.646,41.673 178.000 C 51.804 209.433,95.333 228.972,134.732 219.771 C 156.210 214.756,165.607 207.124,170.159 191.000 C 178.580 161.171,168.781 136.989,141.909 121.282 C 135.490 117.531,134.343 116.125,134.343 112.007 C 134.343 109.161,133.994 108.800,131.246 108.800 C 128.468 108.800,126.924 107.828,120.800 102.225 C 111.589 93.798,98.287 89.916,86.400 92.187 M329.091 97.089 C 329.801 97.177,331.061 97.179,331.891 97.092 C 332.721 97.005,332.140 96.933,330.600 96.931 C 329.060 96.929,328.381 97.000,329.091 97.089 M38.000 101.000 C 37.028 101.990,36.323 102.800,36.433 102.800 C 36.543 102.800,37.428 101.990,38.400 101.000 C 39.372 100.010,40.077 99.200,39.967 99.200 C 39.857 99.200,38.972 100.010,38.000 101.000 M140.901 104.000 C 140.990 104.330,141.499 104.633,142.031 104.674 C 142.795 104.732,142.831 104.701,142.200 104.528 C 141.760 104.407,141.251 104.103,141.070 103.854 C 140.851 103.554,140.794 103.604,140.901 104.000 M360.975 108.500 L 359.800 109.800 361.100 108.625 C 361.815 107.979,362.400 107.394,362.400 107.325 C 362.400 107.016,362.070 107.288,360.975 108.500 M167.800 121.200 C 169.328 122.740,170.669 124.000,170.779 124.000 C 170.889 124.000,169.728 122.740,168.200 121.200 C 166.672 119.660,165.331 118.400,165.221 118.400 C 165.111 118.400,166.272 119.660,167.800 121.200 M354.509 130.400 C 354.509 131.390,354.587 131.795,354.682 131.300 C 354.778 130.805,354.778 129.995,354.682 129.500 C 354.587 129.005,354.509 129.410,354.509 130.400 M367.781 135.700 L 366.200 137.400 367.900 135.819 C 369.481 134.348,369.784 134.000,369.481 134.000 C 369.416 134.000,368.651 134.765,367.781 135.700 M361.505 138.283 C 362.002 138.379,362.722 138.375,363.105 138.275 C 363.487 138.175,363.080 138.096,362.200 138.101 C 361.320 138.105,361.007 138.187,361.505 138.283 M82.076 145.302 C 82.888 145.796,85.128 148.180,87.056 150.600 C 93.734 158.986,96.929 161.483,106.400 165.717 C 117.473 170.666,111.324 184.141,99.884 179.995 C 86.815 175.260,70.800 159.832,70.800 151.979 C 70.800 146.221,77.280 142.384,82.076 145.302 M234.291 152.289 C 235.001 152.377,236.261 152.379,237.091 152.292 C 237.921 152.205,237.340 152.133,235.800 152.131 C 234.260 152.129,233.581 152.200,234.291 152.289 M290.893 155.200 C 290.893 155.970,290.975 156.285,291.076 155.900 C 291.176 155.515,291.176 154.885,291.076 154.500 C 290.975 154.115,290.893 154.430,290.893 155.200 M220.120 165.600 C 220.120 166.810,220.195 167.305,220.287 166.700 C 220.378 166.095,220.378 165.105,220.287 164.500 C 220.195 163.895,220.120 164.390,220.120 165.600 M222.400 172.925 C 222.400 172.994,222.985 173.579,223.700 174.225 L 225.000 175.400 223.825 174.100 C 222.730 172.888,222.400 172.616,222.400 172.925 M231.700 177.487 C 232.305 177.578,233.295 177.578,233.900 177.487 C 234.505 177.395,234.010 177.320,232.800 177.320 C 231.590 177.320,231.095 177.395,231.700 177.487 M188.093 181.600 C 188.093 182.370,188.175 182.685,188.276 182.300 C 188.376 181.915,188.376 181.285,188.276 180.900 C 188.175 180.515,188.093 180.830,188.093 181.600 M44.383 210.900 C 45.364 211.945,46.219 212.800,46.283 212.800 C 46.584 212.800,46.266 212.441,44.500 210.783 L 42.600 209.000 44.383 210.900 M172.585 218.500 L 170.600 220.600 172.700 218.615 C 173.855 217.523,174.800 216.578,174.800 216.515 C 174.800 216.217,174.429 216.549,172.585 218.500 M109.500 237.889 C 110.215 237.978,111.385 237.978,112.100 237.889 C 112.815 237.801,112.230 237.728,110.800 237.728 C 109.370 237.728,108.785 237.801,109.500 237.889 M119.900 237.882 C 120.395 237.978,121.205 237.978,121.700 237.882 C 122.195 237.787,121.790 237.709,120.800 237.709 C 119.810 237.709,119.405 237.787,119.900 237.882 M80.909 250.000 C 80.909 250.990,80.987 251.395,81.082 250.900 C 81.178 250.405,81.178 249.595,81.082 249.100 C 80.987 248.605,80.909 249.010,80.909 250.000 M96.146 258.200 C 96.147 260.400,96.214 261.249,96.295 260.087 C 96.376 258.924,96.376 257.124,96.293 256.087 C 96.211 255.049,96.145 256.000,96.146 258.200 M80.531 259.400 C 80.533 260.940,80.605 261.521,80.692 260.691 C 80.779 259.861,80.777 258.601,80.689 257.891 C 80.600 257.181,80.529 257.860,80.531 259.400 M296.400 262.200 C 297.146 262.970,297.847 263.600,297.957 263.600 C 298.067 263.600,297.546 262.970,296.800 262.200 C 296.054 261.430,295.353 260.800,295.243 260.800 C 295.133 260.800,295.654 261.430,296.400 262.200 M214.525 263.100 C 214.106 263.485,213.984 263.653,214.256 263.472 C 214.527 263.292,215.255 262.992,215.874 262.807 C 216.787 262.533,216.838 262.462,216.144 262.434 C 215.674 262.415,214.945 262.715,214.525 263.100 M223.200 264.600 C 223.946 265.370,224.647 266.000,224.757 266.000 C 224.867 266.000,224.346 265.370,223.600 264.600 C 222.854 263.830,222.153 263.200,222.043 263.200 C 221.933 263.200,222.454 263.830,223.200 264.600 M210.493 269.200 C 210.493 269.970,210.575 270.285,210.676 269.900 C 210.776 269.515,210.776 268.885,210.676 268.500 C 210.575 268.115,210.493 268.430,210.493 269.200 M281.400 269.600 C 282.259 270.480,283.052 271.200,283.162 271.200 C 283.272 271.200,282.659 270.480,281.800 269.600 C 280.941 268.720,280.148 268.000,280.038 268.000 C 279.928 268.000,280.541 268.720,281.400 269.600 M210.501 272.200 C 210.505 273.080,210.587 273.393,210.683 272.895 C 210.779 272.398,210.775 271.678,210.675 271.295 C 210.575 270.913,210.496 271.320,210.501 272.200 M286.000 274.200 C 286.746 274.970,287.447 275.600,287.557 275.600 C 287.667 275.600,287.146 274.970,286.400 274.200 C 285.654 273.430,284.953 272.800,284.843 272.800 C 284.733 272.800,285.254 273.430,286.000 274.200 M221.400 304.000 C 222.259 304.880,223.052 305.600,223.162 305.600 C 223.272 305.600,222.659 304.880,221.800 304.000 C 220.941 303.120,220.148 302.400,220.038 302.400 C 219.928 302.400,220.541 303.120,221.400 304.000 M118.600 308.000 C 121.012 310.420,123.076 312.400,123.186 312.400 C 123.296 312.400,121.412 310.420,119.000 308.000 C 116.588 305.580,114.524 303.600,114.414 303.600 C 114.304 303.600,116.188 305.580,118.600 308.000 M257.375 307.300 L 256.200 308.600 257.500 307.425 C 258.215 306.779,258.800 306.194,258.800 306.125 C 258.800 305.816,258.470 306.088,257.375 307.300 M104.383 316.100 C 106.041 317.866,106.400 318.184,106.400 317.883 C 106.400 317.819,105.545 316.964,104.500 315.983 L 102.600 314.200 104.383 316.100 M110.400 322.200 C 111.146 322.970,111.847 323.600,111.957 323.600 C 112.067 323.600,111.546 322.970,110.800 322.200 C 110.054 321.430,109.353 320.800,109.243 320.800 C 109.133 320.800,109.654 321.430,110.400 322.200 M335.787 340.500 L 333.400 343.000 335.900 340.613 C 337.275 339.299,338.400 338.174,338.400 338.113 C 338.400 337.817,338.005 338.178,335.787 340.500 M225.300 360.676 C 225.685 360.776,226.315 360.776,226.700 360.676 C 227.085 360.575,226.770 360.493,226.000 360.493 C 225.230 360.493,224.915 360.575,225.300 360.676 M230.305 361.083 C 230.802 361.179,231.522 361.175,231.905 361.075 C 232.287 360.975,231.880 360.896,231.000 360.901 C 230.120 360.905,229.807 360.987,230.305 361.083 M182.800 374.147 C 183.570 374.982,184.560 375.855,185.000 376.087 C 185.440 376.319,185.710 376.425,185.600 376.322 C 183.042 373.943,181.528 372.767,182.800 374.147 M264.175 377.300 L 263.000 378.600 264.300 377.425 C 265.015 376.779,265.600 376.194,265.600 376.125 C 265.600 375.816,265.270 376.088,264.175 377.300 M257.700 379.487 C 258.305 379.578,259.295 379.578,259.900 379.487 C 260.505 379.395,260.010 379.320,258.800 379.320 C 257.590 379.320,257.095 379.395,257.700 379.487 " stroke="none" fill="#f9db0c" fill-rule="evenodd"></path></g></svg>